<svg width="20" height="20" viewBox="0 0 20 20" fill="none" xmlns="http://www.w3.org/2000/svg">
<g opacity="0.5">
<path d="M0.496094 6.51172C2.18368 1.04498 8.92213 -1.40601 14.1123 0.853516L14.1143 0.854492C16.1684 1.55725 17.8015 3.23583 18.8184 5.25C19.8352 7.26411 20.235 9.61228 19.8252 11.6523C19.7947 11.8043 19.7596 11.9566 19.7217 12.1084V12.1104C19.6327 12.6303 19.504 13.1436 19.332 13.6436C17.6154 18.6357 11.3905 20.9745 6.16895 19.1885C1.77849 17.6865 -1.19247 11.9821 0.496094 6.51172Z" fill="url(#paint0_radial_5993_66994)"/>
<path d="M0.496094 6.51172C2.18368 1.04498 8.92213 -1.40601 14.1123 0.853516L14.1143 0.854492C16.1684 1.55725 17.8015 3.23583 18.8184 5.25C19.8352 7.26411 20.235 9.61228 19.8252 11.6523C19.7947 11.8043 19.7596 11.9566 19.7217 12.1084V12.1104C19.6327 12.6303 19.504 13.1436 19.332 13.6436C17.6154 18.6357 11.3905 20.9745 6.16895 19.1885C1.77849 17.6865 -1.19247 11.9821 0.496094 6.51172Z" fill="url(#paint1_radial_5993_66994)"/>
<path d="M0.496094 6.51172C2.18368 1.04498 8.92213 -1.40601 14.1123 0.853516L14.1143 0.854492C16.1684 1.55725 17.8015 3.23583 18.8184 5.25C19.8352 7.26411 20.235 9.61228 19.8252 11.6523C19.7947 11.8043 19.7596 11.9566 19.7217 12.1084V12.1104C19.6327 12.6303 19.504 13.1436 19.332 13.6436C17.6154 18.6357 11.3905 20.9745 6.16895 19.1885C1.77849 17.6865 -1.19247 11.9821 0.496094 6.51172Z" fill="url(#paint2_radial_5993_66994)"/>
<path d="M0.496094 6.51172C2.18368 1.04498 8.92213 -1.40601 14.1123 0.853516L14.1143 0.854492C16.1684 1.55725 17.8015 3.23583 18.8184 5.25C19.8352 7.26411 20.235 9.61228 19.8252 11.6523C19.7947 11.8043 19.7596 11.9566 19.7217 12.1084V12.1104C19.6327 12.6303 19.504 13.1436 19.332 13.6436C17.6154 18.6357 11.3905 20.9745 6.16895 19.1885C1.77849 17.6865 -1.19247 11.9821 0.496094 6.51172Z" stroke="url(#paint3_radial_5993_66994)" stroke-width="0.0320372"/>
</g>
<defs>
<radialGradient id="paint0_radial_5993_66994" cx="0" cy="0" r="1" gradientTransform="matrix(3.09091 -13.7273 31.8281 5.53049 9.54545 18.9909)" gradientUnits="userSpaceOnUse">
<stop stop-color="#80D5FF" stop-opacity="0.6"/>
<stop offset="1" stop-color="white" stop-opacity="0"/>
</radialGradient>
<radialGradient id="paint1_radial_5993_66994" cx="0" cy="0" r="1" gradientTransform="matrix(-9.39024 -6.21476 17.4405 -29.5797 20 14.0818)" gradientUnits="userSpaceOnUse">
<stop offset="0.129499" stop-color="#FFF4BF"/>
<stop offset="1" stop-color="#E1FFBF" stop-opacity="0"/>
</radialGradient>
<radialGradient id="paint2_radial_5993_66994" cx="0" cy="0" r="1" gradientTransform="matrix(8.83083 3.05997 -3.97011 11.1445 1.09091 6.80908)" gradientUnits="userSpaceOnUse">
<stop stop-color="#E6F7FF" stop-opacity="0.9"/>
<stop offset="1" stop-color="#91DAFE" stop-opacity="0"/>
</radialGradient>
<radialGradient id="paint3_radial_5993_66994" cx="0" cy="0" r="1" gradientTransform="matrix(-5.47498 -7.29998 7.42004 -5.26529 18.4859 16.1698)" gradientUnits="userSpaceOnUse">
<stop stop-color="#B3A316"/>
<stop offset="1" stop-color="white" stop-opacity="0"/>
</radialGradient>
</defs>
</svg>
