<svg width="257" height="12" viewBox="0 0 257 12" fill="none" xmlns="http://www.w3.org/2000/svg">
<path d="M0.000230521 1.38024H6.07223V2.23224H0.984231V5.10024H5.78423V5.95224H0.984231V9.09624H6.27623V9.94824H0.000230521V1.38024ZM7.10086 3.74424H8.22886L9.83686 5.95224L11.4329 3.74424H12.5609L10.3649 6.66024L12.8249 9.94824H11.6849L9.83686 7.36824L7.97686 9.94824H6.83686L9.29686 6.66024L7.10086 3.74424ZM16.3023 3.57624C17.0703 3.57624 17.6823 3.75624 18.1503 4.11624C18.6303 4.48824 18.9183 5.05224 19.0263 5.80824H18.0783C17.9943 5.32824 17.8023 4.96824 17.5023 4.72824C17.1903 4.48824 16.7943 4.38024 16.3023 4.38024C15.7023 4.38024 15.2223 4.60824 14.8743 5.06424C14.5383 5.50824 14.3703 6.10824 14.3703 6.86424C14.3703 7.62024 14.5263 8.22024 14.8623 8.65224C15.1863 9.08424 15.6663 9.31224 16.2903 9.31224C17.3463 9.31224 17.9583 8.77224 18.1023 7.70424H19.0623C18.9183 8.49624 18.6183 9.10824 18.1383 9.51624C17.6703 9.91224 17.0583 10.1162 16.2903 10.1162C15.3543 10.1162 14.6343 9.80424 14.1183 9.18024C13.6263 8.59224 13.3863 7.82424 13.3863 6.87624C13.3863 5.92824 13.6263 5.16024 14.1183 4.56024C14.6463 3.90024 15.3783 3.57624 16.3023 3.57624ZM22.7448 3.57624C23.7408 3.57624 24.4968 3.91224 25.0008 4.58424C25.4568 5.18424 25.6968 6.03624 25.7208 7.11624H20.8248C20.8728 7.81224 21.0528 8.35224 21.3888 8.73624C21.7248 9.12024 22.1928 9.31224 22.7808 9.31224C23.2848 9.31224 23.7048 9.18024 24.0168 8.92824C24.2808 8.71224 24.4848 8.38824 24.6408 7.95624H25.6008C25.4568 8.55624 25.1808 9.03624 24.7608 9.42024C24.2448 9.87624 23.5848 10.1162 22.7808 10.1162C21.8928 10.1162 21.1728 9.81624 20.6448 9.24024C20.0928 8.64024 19.8288 7.84824 19.8288 6.84024C19.8288 5.92824 20.0808 5.16024 20.6088 4.54824C21.1368 3.90024 21.8448 3.57624 22.7448 3.57624ZM22.7688 4.38024C22.2168 4.38024 21.7728 4.56024 21.4368 4.92024C21.1008 5.28024 20.9088 5.76024 20.8488 6.37224H24.7248C24.6048 5.04024 23.9448 4.38024 22.7688 4.38024ZM27.0371 1.21224H27.9851V9.94824H27.0371V1.21224ZM31.0013 8.26824C31.4573 8.59224 31.9253 8.98824 32.3813 9.46824C32.7773 9.87624 33.1253 10.2962 33.4133 10.7042L32.8133 11.2082C32.5253 10.8002 32.1773 10.3922 31.7933 9.98424C31.3493 9.50424 30.9053 9.10824 30.4613 8.77224L31.0013 8.26824ZM41.6933 2.17224H46.6613C46.3373 1.53624 45.9413 0.936242 45.4613 0.372242L46.3253 0.0602415C46.7813 0.636242 47.1893 1.34424 47.5733 2.17224H52.1573V3.03624H50.2853C49.6973 4.93224 48.8093 6.52824 47.6333 7.80024C48.9053 8.88024 50.5013 9.76824 52.4213 10.4762L51.9533 11.1962C49.9613 10.4522 48.3293 9.52824 47.0333 8.41224C45.6653 9.67224 43.9613 10.5962 41.9213 11.1842L41.4653 10.4282C43.4813 9.88824 45.1373 9.03624 46.4333 7.86024C45.0413 6.49224 44.0813 4.88424 43.5413 3.03624H41.6933V2.17224ZM44.3933 3.03624C44.9093 4.65624 45.7853 6.06024 47.0333 7.26024C48.1013 6.09624 48.8813 4.69224 49.3853 3.03624H44.3933ZM57.8813 4.30824H60.5573V0.144242H61.4333V4.30824H63.9053V11.1482H63.0413V10.6442H57.6653V9.80424H63.0413V7.86024H58.1813V7.04424H63.0413V5.14824H57.8813V4.30824ZM63.4733 0.756242L64.2413 1.11624C63.9053 2.00424 63.4733 2.85624 62.9453 3.69624L62.2013 3.31224C62.7293 2.44824 63.1613 1.59624 63.4733 0.756242ZM58.4813 0.840241C58.9133 1.58424 59.3213 2.41224 59.7053 3.30024L58.9613 3.67224C58.5773 2.74824 58.1573 1.93224 57.7253 1.21224L58.4813 0.840241ZM56.1173 4.98024V11.1002H55.2413V5.08824C54.8453 6.24024 54.3413 7.27224 53.7173 8.20824L53.3453 7.28424C54.2333 6.12024 54.8573 4.80024 55.2293 3.32424H53.6093V2.49624H55.2413V0.156242H56.1173V2.49624H57.5453V3.32424H56.1173V4.02024C56.6693 4.60824 57.2213 5.28024 57.7853 6.02424L57.2933 6.74424C56.8373 6.01224 56.4533 5.42424 56.1173 4.98024ZM67.0013 8.26824C67.4573 8.59224 67.9253 8.98824 68.3813 9.46824C68.7773 9.87624 69.1253 10.2962 69.4133 10.7042L68.8133 11.2082C68.5253 10.8002 68.1773 10.3922 67.7933 9.98424C67.3493 9.50424 66.9053 9.10824 66.4613 8.77224L67.0013 8.26824ZM81.7733 1.70424L82.5413 1.80024C82.4453 2.02824 82.3493 2.24424 82.2293 2.46024H85.3973V3.06024C85.0613 3.69624 84.5573 4.26024 83.8733 4.74024C84.6773 5.12424 85.5893 5.44824 86.6213 5.68824L86.1653 6.33624C85.0013 6.02424 84.0053 5.64024 83.1653 5.17224C82.2413 5.66424 81.1013 6.06024 79.7333 6.36024L79.3493 5.66424C80.5853 5.44824 81.6293 5.13624 82.4693 4.74024C82.0013 4.42824 81.5933 4.09224 81.2573 3.73224C80.8973 4.06824 80.4893 4.38024 80.0333 4.66824L79.5533 4.04424C80.6453 3.39624 81.3893 2.61624 81.7733 1.70424ZM83.1653 4.36824C83.7533 4.00824 84.2093 3.58824 84.5333 3.10824H81.8093C81.7613 3.15624 81.7253 3.20424 81.7013 3.25224C82.1213 3.66024 82.6133 4.03224 83.1653 4.36824ZM80.7893 7.59624C82.3853 7.89624 83.9213 8.32824 85.3853 8.88024L85.0973 9.57624C83.6093 9.00024 82.0613 8.55624 80.4533 8.24424L80.7893 7.59624ZM82.0373 5.91624C82.9733 6.22824 83.8373 6.61224 84.6173 7.04424L84.2093 7.66824C83.3813 7.16424 82.5293 6.78024 81.6413 6.49224L82.0373 5.91624ZM87.8213 0.672241V11.1482H86.9813V10.6562H78.8693V11.1482H78.0293V0.672241H87.8213ZM78.8693 9.88824H86.9813V1.44024H78.8693V9.88824ZM92.6453 4.16424V4.88424C92.6333 5.32824 92.6093 5.74824 92.5853 6.14424H98.1653V11.1722H97.3013V6.98424H92.4773C92.1893 8.78424 91.5293 10.1762 90.5093 11.1362L89.8493 10.5602C91.1093 9.37224 91.7453 7.47624 91.7693 4.88424V0.480242H92.6453V3.33624H96.1613V0.144242H97.0133V3.33624H99.7133V4.16424H92.6453ZM102.833 11.0402H101.825L101.645 10.2242C101.957 10.2602 102.257 10.2842 102.545 10.2842C102.881 10.2842 103.049 10.0922 103.049 9.73224V6.92424C102.569 7.09224 102.089 7.26024 101.609 7.40424L101.393 6.54024C101.957 6.40824 102.509 6.25224 103.049 6.06024V3.27624H101.585V2.44824H103.049V0.180242H103.889V2.44824H105.053V3.27624H103.889V5.73624C104.321 5.54424 104.753 5.34024 105.173 5.12424V6.00024C104.753 6.21624 104.321 6.40824 103.889 6.58824V9.94824C103.889 10.6682 103.529 11.0402 102.833 11.0402ZM106.949 2.34024C106.517 3.18024 106.025 3.92424 105.485 4.57224L104.921 3.91224C105.785 2.94024 106.481 1.66824 107.021 0.108242L107.813 0.276242C107.669 0.708242 107.501 1.11624 107.333 1.51224H112.097V2.34024H106.949ZM111.653 3.70824C111.653 5.80824 111.593 7.08024 111.497 7.52424C111.401 7.95624 110.969 8.18424 110.213 8.18424H109.901L109.673 7.42824C109.937 7.42824 110.165 7.44024 110.357 7.44024C110.597 7.44024 110.741 7.32024 110.789 7.10424C110.837 6.88824 110.861 6.12024 110.873 4.77624L109.301 5.30424V9.01224H108.533V5.55624L107.201 6.00024V9.54024C107.201 9.94824 107.369 10.1642 107.705 10.1642H110.309C110.717 10.1642 111.017 10.0802 111.209 9.93624C111.377 9.76824 111.497 9.21624 111.557 8.28024L112.313 8.53224C112.217 9.66024 112.049 10.3442 111.809 10.5842C111.557 10.8242 111.101 10.9442 110.441 10.9442H107.513C106.781 10.9442 106.421 10.5122 106.421 9.64824V6.26424L105.497 6.57624V5.80824L106.421 5.49624V3.79224H107.201V5.23224L108.533 4.77624V2.95224H109.301V4.51224L111.653 3.70824ZM114.461 0.336241C115.265 0.960242 115.949 1.57224 116.501 2.19624L115.877 2.80824C115.397 2.22024 114.725 1.58424 113.873 0.900242L114.461 0.336241ZM121.433 10.9322C120.785 10.9322 120.077 10.9202 119.321 10.9082C118.553 10.8962 117.941 10.8242 117.461 10.6922C116.993 10.5482 116.573 10.2482 116.201 9.81624C116.045 9.61224 115.889 9.51624 115.745 9.51624C115.457 9.51624 114.989 10.0682 114.329 11.1722L113.681 10.5842C114.317 9.57624 114.881 8.96424 115.373 8.74824V5.10024H113.657V4.30824H116.177V8.79624C116.273 8.86824 116.369 8.96424 116.465 9.07224C116.753 9.42024 117.053 9.67224 117.389 9.82824C117.749 9.99624 118.289 10.0922 118.985 10.1162C119.609 10.1282 120.389 10.1402 121.313 10.1402C121.877 10.1402 122.453 10.1282 123.041 10.1162C123.617 10.1042 124.073 10.0922 124.385 10.0682L124.181 10.9322H121.433ZM117.329 2.04024H118.745V0.132242H119.573V2.04024H121.469V0.144242H122.309V2.04024H123.833V2.84424H122.309V5.23224H124.217V6.04824H122.309V9.49224H121.469V6.04824H119.333C119.021 7.48824 118.397 8.55624 117.473 9.25224L116.957 8.55624C117.713 8.01624 118.229 7.17624 118.493 6.04824H116.909V5.23224H118.649C118.709 4.77624 118.745 4.29624 118.745 3.79224V2.84424H117.329V2.04024ZM119.573 2.84424V3.60024C119.573 4.17624 119.537 4.72824 119.477 5.23224H121.469V2.84424H119.573ZM127.961 2.86824C128.357 3.48024 128.729 4.15224 129.089 4.89624L128.345 5.26824C127.997 4.50024 127.613 3.82824 127.205 3.22824L127.961 2.86824ZM129.701 6.24024H125.693V5.41224H130.481V2.40024H126.161V1.57224H130.481V0.192242H131.369V1.57224H135.785V2.40024H131.369V5.41224H132.569C133.037 4.59624 133.433 3.70824 133.769 2.76024L134.609 3.06024C134.261 3.93624 133.865 4.71624 133.421 5.41224H136.133V6.24024H132.125C132.977 7.60824 134.429 8.82024 136.469 9.88824L135.881 10.6322C133.757 9.32424 132.269 7.86024 131.417 6.24024H131.369V11.1242H130.481V6.24024H130.409C129.641 7.94424 128.117 9.40824 125.837 10.6442L125.357 9.87624C127.517 8.80824 128.969 7.59624 129.701 6.24024ZM139.157 8.52024C139.421 8.52024 139.649 8.62824 139.817 8.85624C139.973 9.07224 140.057 9.34824 140.057 9.69624C140.057 10.2242 139.901 10.6922 139.589 11.1002C139.277 11.4842 138.857 11.7482 138.353 11.8802V11.2922C138.665 11.1842 138.917 11.0042 139.109 10.7642C139.277 10.5122 139.373 10.2482 139.373 9.96024C139.325 9.98424 139.229 10.0082 139.109 10.0082C138.905 10.0082 138.737 9.93624 138.593 9.79224C138.449 9.64824 138.377 9.46824 138.377 9.26424C138.377 9.03624 138.449 8.85624 138.593 8.72424C138.737 8.58024 138.917 8.52024 139.157 8.52024ZM150.389 2.35224H154.193C154.325 2.06424 154.445 1.76424 154.565 1.47624C153.389 1.54824 152.117 1.58424 150.749 1.58424L150.497 0.864242C153.905 0.864242 156.725 0.636242 158.969 0.180242L159.365 0.864242C158.225 1.11624 156.905 1.29624 155.393 1.41624C155.285 1.74024 155.165 2.05224 155.045 2.35224H159.509V3.09624H154.697C154.553 3.38424 154.397 3.64824 154.241 3.91224H160.205V4.68024H153.713C153.497 4.96824 153.281 5.24424 153.053 5.50824H159.005V11.1602H158.177V10.6442H152.753V11.1602H151.925V6.66024C151.313 7.21224 150.641 7.75224 149.897 8.25624L149.429 7.51224C150.737 6.62424 151.817 5.68824 152.669 4.68024H149.741V3.91224H153.269C153.461 3.63624 153.641 3.36024 153.797 3.09624H150.389V2.35224ZM152.753 7.69224V8.44824H158.177V7.69224H152.753ZM158.177 7.02024V6.21624H152.753V7.02024H158.177ZM152.753 9.12024V9.93624H158.177V9.12024H152.753ZM162.389 2.35224H166.193C166.325 2.06424 166.445 1.76424 166.565 1.47624C165.389 1.54824 164.117 1.58424 162.749 1.58424L162.497 0.864242C165.905 0.864242 168.725 0.636242 170.969 0.180242L171.365 0.864242C170.225 1.11624 168.905 1.29624 167.393 1.41624C167.285 1.74024 167.165 2.05224 167.045 2.35224H171.509V3.09624H166.697C166.553 3.38424 166.397 3.64824 166.241 3.91224H172.205V4.68024H165.713C165.497 4.96824 165.281 5.24424 165.053 5.50824H171.005V11.1602H170.177V10.6442H164.753V11.1602H163.925V6.66024C163.313 7.21224 162.641 7.75224 161.897 8.25624L161.429 7.51224C162.737 6.62424 163.817 5.68824 164.669 4.68024H161.741V3.91224H165.269C165.461 3.63624 165.641 3.36024 165.797 3.09624H162.389V2.35224ZM164.753 7.69224V8.44824H170.177V7.69224H164.753ZM170.177 7.02024V6.21624H164.753V7.02024H170.177ZM164.753 9.12024V9.93624H170.177V9.12024H164.753ZM184.001 1.44024V3.76824H183.125V2.28024H174.725V3.76824H173.849V1.44024H178.613C178.457 1.00824 178.289 0.600242 178.097 0.228241L179.033 0.0842419C179.201 0.492242 179.369 0.936242 179.513 1.44024H184.001ZM182.129 4.56024L182.717 5.24424C181.085 6.01224 179.057 6.66024 176.645 7.17624V9.31224C176.645 9.74424 176.837 9.97224 177.245 9.97224H181.529C181.961 9.97224 182.273 9.88824 182.453 9.72024C182.705 9.50424 182.873 8.89224 182.945 7.88424L183.773 8.14824C183.653 9.40824 183.413 10.1762 183.077 10.4522C182.789 10.6922 182.321 10.8122 181.685 10.8122H176.981C176.165 10.8122 175.769 10.3682 175.769 9.49224V3.34824H176.645V6.32424C178.829 5.84424 180.665 5.25624 182.129 4.56024ZM187.073 7.03224V8.14824H189.845V7.03224H187.073ZM189.845 6.31224V5.14824H187.073V6.31224H189.845ZM187.073 8.88024V11.1722H186.245V4.39224H190.673V10.0322C190.673 10.7282 190.337 11.0882 189.665 11.0882H188.705L188.489 10.2722L189.389 10.3082C189.689 10.3082 189.845 10.1522 189.845 9.85224V8.88024H187.073ZM194.885 5.38824H192.905C192.173 5.38824 191.813 4.99224 191.813 4.21224V0.180242H192.665V1.74024C193.985 1.53624 195.053 1.32024 195.881 1.10424L196.157 1.86024C195.149 2.11224 193.985 2.34024 192.665 2.53224V4.03224C192.665 4.41624 192.821 4.60824 193.145 4.60824H194.717C194.957 4.60824 195.125 4.53624 195.221 4.41624C195.341 4.24824 195.413 3.80424 195.461 3.06024L196.265 3.31224C196.181 4.29624 196.025 4.89624 195.809 5.11224C195.617 5.29224 195.305 5.38824 194.885 5.38824ZM192.665 8.10024V9.81624C192.665 10.0562 192.809 10.1882 193.121 10.1882H194.753C194.993 10.1882 195.173 10.1282 195.269 10.0202C195.401 9.85224 195.485 9.40824 195.533 8.67624L196.313 8.91624C196.241 9.88824 196.085 10.4762 195.857 10.6922C195.665 10.8722 195.353 10.9682 194.921 10.9682H192.881C192.161 10.9682 191.813 10.6442 191.813 10.0082V5.84424H192.665V7.32024C193.865 7.20024 194.933 6.99624 195.881 6.70824L196.157 7.47624C195.077 7.78824 193.913 7.99224 192.665 8.10024ZM189.809 0.996242C190.529 1.96824 191.093 2.80824 191.489 3.52824L190.781 4.03224C190.649 3.76824 190.505 3.50424 190.349 3.24024C189.065 3.44424 187.529 3.58824 185.753 3.68424L185.513 2.96424C185.669 2.91624 185.801 2.83224 185.909 2.73624C186.653 1.96824 187.277 1.10424 187.757 0.144242L188.573 0.396241C188.021 1.46424 187.421 2.30424 186.749 2.91624C187.757 2.85624 188.825 2.76024 189.953 2.61624C189.701 2.23224 189.425 1.82424 189.137 1.41624L189.809 0.996242ZM206.093 2.70024C207.005 3.30024 207.761 3.90024 208.385 4.50024L207.785 5.10024C207.233 4.52424 206.477 3.90024 205.517 3.25224L206.093 2.70024ZM203.045 0.000241518C203.189 0.360242 203.321 0.756242 203.453 1.20024H208.085V2.04024H204.773V5.28024H203.909V2.04024H201.953V5.28024H201.089V2.04024H197.765V1.20024H202.577C202.433 0.816242 202.277 0.456242 202.109 0.144242L203.045 0.000241518ZM199.769 2.73624L200.405 3.30024C199.757 3.98424 198.953 4.59624 198.005 5.12424L197.477 4.42824C198.389 3.94824 199.145 3.38424 199.769 2.73624ZM198.581 5.91624H206.777V6.57624C205.985 7.56024 205.013 8.40024 203.861 9.08424C205.157 9.64824 206.693 10.0562 208.457 10.2962L208.061 11.0882C206.081 10.7522 204.401 10.2362 203.021 9.54024C201.581 10.2482 199.889 10.7642 197.969 11.0882L197.573 10.2722C199.301 10.0202 200.813 9.61224 202.133 9.04824C201.065 8.37624 200.201 7.59624 199.529 6.68424H198.581V5.91624ZM200.489 6.68424C201.137 7.45224 201.965 8.11224 202.961 8.65224C203.993 8.10024 204.869 7.44024 205.613 6.68424H200.489ZM217.853 0.108242C218.429 0.540242 218.921 0.984242 219.329 1.42824L218.777 1.98024H220.241V2.80824H216.545C216.629 4.29624 216.785 5.47224 217.001 6.33624C217.073 6.63624 217.157 6.91224 217.241 7.17624C217.841 6.21624 218.321 5.08824 218.693 3.80424L219.473 4.14024C218.993 5.72424 218.369 7.06824 217.601 8.14824C217.769 8.53224 217.949 8.86824 218.141 9.14424C218.537 9.72024 218.861 10.0082 219.101 10.0082C219.317 9.99624 219.521 9.37224 219.701 8.13624L220.481 8.56824C220.193 10.1642 219.785 10.9682 219.245 10.9682C218.741 10.9682 218.201 10.6082 217.625 9.88824C217.409 9.60024 217.205 9.26424 217.025 8.89224C216.185 9.87624 215.201 10.6082 214.073 11.1122L213.593 10.3922C214.793 9.85224 215.813 9.06024 216.641 8.01624C216.473 7.57224 216.317 7.09224 216.185 6.57624C215.921 5.56824 215.753 4.30824 215.657 2.80824H211.541V4.80024H214.481C214.457 6.82824 214.361 8.13624 214.205 8.72424C214.049 9.24024 213.677 9.50424 213.077 9.52824C212.789 9.52824 212.441 9.50424 212.057 9.48024L211.793 8.70024C212.261 8.72424 212.657 8.73624 212.981 8.73624C213.245 8.72424 213.413 8.54424 213.485 8.20824C213.557 7.80024 213.593 6.93624 213.617 5.61624H211.541V5.97624C211.493 8.12424 211.013 9.85224 210.125 11.1482L209.465 10.5602C210.233 9.45624 210.629 7.93224 210.665 5.97624V1.98024H215.621C215.597 1.38024 215.585 0.768242 215.585 0.120241H216.473C216.473 0.792242 216.485 1.40424 216.509 1.98024H218.753C218.393 1.54824 217.913 1.10424 217.301 0.636242L217.853 0.108242ZM223.025 4.32024C222.593 4.93224 222.101 5.50824 221.573 6.06024L221.297 5.16024C222.605 3.69624 223.553 2.00424 224.153 0.0962417L224.957 0.480242C224.669 1.34424 224.309 2.17224 223.889 2.94024V11.1722H223.025V4.32024ZM228.089 0.144242H228.965V4.09224H232.373V4.95624H228.965V11.1602H228.089V4.95624H224.837V4.09224H228.089V0.144242ZM241.469 5.90424C242.465 7.38024 243.317 8.95224 244.037 10.6322L243.197 11.0042C243.017 10.5962 242.837 10.2002 242.669 9.81624C240.581 10.1882 238.025 10.4642 235.025 10.6442L234.785 9.75624C235.025 9.66024 235.277 9.48024 235.541 9.20424C237.077 7.63224 238.733 5.31624 240.509 2.25624L241.373 2.68824C239.285 6.12024 237.617 8.44824 236.369 9.68424C238.433 9.54024 240.401 9.32424 242.285 9.03624C241.757 7.98024 241.217 7.03224 240.641 6.16824L241.469 5.90424ZM238.097 0.0962417L239.033 0.300242C237.773 2.91624 236.117 5.05224 234.065 6.73224L233.465 6.01224C235.337 4.51224 236.885 2.54424 238.097 0.0962417ZM252.473 3.13224H249.761V2.31624H251.537C251.201 1.64424 250.853 1.04424 250.493 0.516242L251.213 0.180242C251.573 0.732242 251.921 1.33224 252.257 1.98024L251.573 2.31624H253.457C253.829 1.63224 254.153 0.900242 254.441 0.120241L255.269 0.408242C254.981 1.12824 254.657 1.76424 254.309 2.31624H256.073V3.13224H253.337V4.89624H255.713V5.71224H253.337V7.52424H256.385V8.35224H253.337V11.1842H252.473V8.35224H249.485V7.52424H252.473V5.71224H250.133V4.89624H252.473V3.13224ZM248.069 5.04024V11.1602H247.241V5.02824C246.869 6.12024 246.389 7.11624 245.801 8.01624L245.357 7.29624C246.197 6.14424 246.809 4.82424 247.181 3.32424H245.741V2.49624H247.241V0.156242H248.069V2.49624H249.269V3.32424H248.069V4.08024C248.573 4.62024 249.077 5.23224 249.605 5.90424L249.137 6.60024C248.729 5.96424 248.381 5.44824 248.069 5.04024Z" fill="#90918E"/>
</svg>
